<?xml version="1.0" encoding="utf-8"?>
<!-- Generator: Adobe Illustrator 27.8.1, SVG Export Plug-In . SVG Version: 6.00 Build 0)  -->
<svg version="1.1" id="Layer_1" xmlns="http://www.w3.org/2000/svg" xmlns:xlink="http://www.w3.org/1999/xlink" x="0px" y="0px"
	 viewBox="0 0 617.9 617.9" style="enable-background:new 0 0 617.9 617.9;" xml:space="preserve">
<style type="text/css">
	.st0{fill:#E5D9C3;}
</style>
<path class="st0" d="M447.4,0H170.5C76.5,0,0,76.5,0,170.5v276.9c0,94,76.5,170.5,170.5,170.5h276.9c94,0,170.5-76.5,170.5-170.5
	V170.5C618,76.5,541.5,0,447.4,0L447.4,0z M563.2,447.5c0,63.8-51.9,115.7-115.7,115.7h-277c-63.8,0-115.7-51.9-115.7-115.7v-277
	c0-63.8,51.9-115.7,115.7-115.7h276.9c63.8,0,115.7,51.9,115.7,115.7L563.2,447.5L563.2,447.5L563.2,447.5z"/>
<path class="st0" d="M309,149.8c-87.8,0-159.2,71.4-159.2,159.2S221.2,468.2,309,468.2S468.2,396.8,468.2,309S396.8,149.8,309,149.8
	z M309,413.4c-57.6,0-104.4-46.8-104.4-104.4S251.4,204.6,309,204.6S413.4,251.4,413.4,309S366.6,413.4,309,413.4z"/>
<path class="st0" d="M474.9,103.3c-10.6,0-20.9,4.3-28.4,11.8s-11.8,17.8-11.8,28.4s4.3,20.9,11.8,28.4s17.8,11.8,28.4,11.8
	s20.9-4.3,28.4-11.8s11.8-17.9,11.8-28.4s-4.3-21-11.8-28.4C495.9,107.5,485.5,103.3,474.9,103.3z"/>
</svg>
