<?xml version="1.0" encoding="utf-8"?>
<!-- Generator: Adobe Illustrator 27.8.1, SVG Export Plug-In . SVG Version: 6.00 Build 0)  -->
<svg version="1.1" id="Capa_1" xmlns="http://www.w3.org/2000/svg" xmlns:xlink="http://www.w3.org/1999/xlink" x="0px" y="0px"
	 viewBox="0 0 500 500" style="enable-background:new 0 0 500 500;" xml:space="preserve">
<style type="text/css">
	.st0{fill:#E5D9C3;}
</style>
<g>
	<path class="st0" d="M250.1,104.4c58.1,0,116.2,0,174.3,0c15,0,26.9,10.3,29.2,25.1c2.6,16.7-10.6,32.6-27.5,33.1
		c-0.8,0-1.5,0-2.3,0c-115.9,0-231.8,0-347.7,0c-14.2,0-25.8-8.8-29.1-21.9c-4.7-18.7,9.1-36.4,28.6-36.4
		C133.8,104.3,192,104.4,250.1,104.4z"/>
	<path class="st0" d="M249.8,279.1c-58,0-116,0-174.1,0c-15,0-26.9-10.2-29.3-25C43.8,237.3,57,221.4,74,220.9c0.8,0,1.5,0,2.3,0
		c115.8,0,231.6,0,347.5,0c12.7,0,22.1,5.6,27.5,17.1c9,19.3-5.2,41.1-26.7,41.1c-51.3,0-102.7,0-154,0
		C263.6,279.1,256.7,279.1,249.8,279.1z"/>
	<path class="st0" d="M249.9,395.6c-58,0-116,0-174.1,0c-15.2,0-27.1-10.2-29.4-25.1C43.8,353.9,57,338,73.9,337.4
		c0.8,0,1.5,0,2.3,0c115.9,0,231.8,0,347.7,0c14.2,0,25.8,8.7,29.1,21.9c4.7,18.7-9.2,36.3-28.6,36.4
		C366.2,395.7,308.1,395.6,249.9,395.6z"/>
</g>
</svg>
