<?xml version="1.0" encoding="utf-8"?>
<!-- Generator: Adobe Illustrator 27.7.0, SVG Export Plug-In . SVG Version: 6.00 Build 0)  -->
<svg version="1.1" id="Capa_1" xmlns="http://www.w3.org/2000/svg" xmlns:xlink="http://www.w3.org/1999/xlink" x="0px" y="0px"
	 viewBox="0 0 500 500" style="enable-background:new 0 0 500 500;" xml:space="preserve">
<style type="text/css">
	.st0{fill:#E5D9CF;}
</style>
<g>
	<g>
		<path class="st0" d="M23.9,279.3c-0.9,0-1.9-0.4-2.5-1.2c-1-1.4-0.8-3.3,0.6-4.3c3.3-2.5,6.9-4.6,10.7-6.3
			c16.4-7.2,32.6-3.8,40.4-2.1l1,0.2c20.9,4.3,46,5.2,65.4,2.3c25.3-3.8,46-18.7,61.5-44.3c0.4-0.6,0.7-1.1,0.9-1.4
			c1.3-1.9,4.2-6.5,10.1-8.9c1.9-0.8,8.6-3,15.6,0.2c2.3,1,7.8,4.2,10,10.5c1.3,3.8,0.8,7.2,0.5,9c-0.5,3.1-1.5,6-3.2,8.7
			c-0.9,1.5-2.8,1.9-4.3,1c-1.5-0.9-1.9-2.8-1-4.3c1.2-2,2-4.1,2.3-6.3c0.2-1.5,0.5-3.7-0.3-6.1c-1.4-4.1-5.1-6.2-6.7-6.9
			c-4.8-2.2-9.4-0.7-10.7-0.1c-4.1,1.6-6.1,4.8-7.2,6.5c-0.2,0.3-0.5,0.8-0.8,1.3c-2.6,4.3-8.7,14.4-19.4,24.4
			c-13.4,12.5-29,20.2-46.5,22.8c-20.1,3-46,2.1-67.6-2.4l-1-0.2c-7.7-1.6-22-4.6-36.6,1.7c-3.3,1.4-6.5,3.3-9.4,5.5
			C25.2,279.1,24.5,279.3,23.9,279.3z"/>
	</g>
	<g>
		<path class="st0" d="M293.7,293.8c-7.5,0-12.9-3.2-16.5-6.7c-8.3-8-12.5-22-14.6-36c-6.2,5.4-13.9,10.5-23.3,14.6
			c-1.6,0.7-3.4,0-4.1-1.6c-0.7-1.6,0-3.4,1.6-4.1c10.5-4.6,18.6-10.3,24.8-16.5c-0.8-8.1-1-15.8-0.9-21.9
			c0.2-24.4,4.2-51.4,9.3-62.8c1.3-2.9,3.4-6.7,7.1-6.5c2.4,0.2,3.8,2.1,5.3,5c8.9,17.3,9.8,40.7,2.6,61c-3,8.3-8.1,18.3-16.9,27.6
			c1.5,13.1,4.5,23.7,8.8,30.9c6.8,11.5,16.8,13.9,30.3,7.3c5.2-2.5,8.2-4.3,13.7-7.6c2.9-1.7,6.5-3.8,11.4-6.6
			c4.9-2.8,12.3-7,19.5-10.1l0,0c0.3-0.1,0.5-0.2,0.7-0.3c0.6-0.2,1.3-0.5,2-0.7c1.6-0.6,4.2-1.4,7.5-2.3c5.9-1.6,15.2-3.6,26.5-4.3
			c21.9-1.3,54.1,4.2,88.3,15.3c1.6,0.5,2.5,2.3,2,3.9c-0.5,1.6-2.3,2.5-3.9,2c-33-10.6-65.1-16.2-86-15c-20.4,1.2-34.4,7-34.8,7.1
			c0,0,0,0,0,0c-6.9,2.9-13.8,6.8-18.8,9.7c-4.9,2.8-8.5,4.9-11.4,6.6c-5.5,3.2-8.8,5.2-14.2,7.8
			C303.7,292.6,298.3,293.8,293.7,293.8z M276.6,159.3c-2.8,4.7-7.5,22.3-9.1,48.2c-0.7,10.6-0.7,20.6-0.1,29.6
			c5.9-7.3,9.5-14.7,11.8-21.1c6.7-18.7,5.9-40.2-2.2-56.1C276.8,159.7,276.7,159.5,276.6,159.3z"/>
	</g>
	<g>
		<path class="st0" d="M212.5,309.4c-11.2,0-33-3.8-37-18.4c-1.7-6-0.3-14.7,5.4-19.8c5.2-4.6,11.2-3.9,18.2-3.1
			c5.2,0.6,11.1,1.2,18.1,0c5.2-0.9,10.3-2.6,15.2-5.3c-5-2.6-9.4-3.8-13.5-4.9c-6.3-1.7-11.8-3.2-15.9-9c-4-5.6-5.3-13.2-3.6-22.5
			c0.3-1.7,1.9-2.8,3.6-2.5c1.7,0.3,2.8,1.9,2.5,3.6c-1.3,7.6-0.5,13.5,2.6,17.8c2.9,4,6.7,5.1,12.5,6.7c5,1.4,11,3,17.9,7.2
			c1.4-0.7,3.1-0.3,3.9,1c0.4,0.6,0.6,1.3,0.5,1.9c6.3,4.3,14.7,10.9,14.7,19.6c0,7-5.5,14.1-15.2,19.6c-8.8,5-20,8-29.9,8.1
			C212.7,309.4,212.6,309.4,212.5,309.4z M191.8,273.8c-2.9,0-5,0.5-6.8,2.1c-3.8,3.3-4.7,9.4-3.5,13.5
			c2.8,10.3,20.2,13.9,31.3,13.8c8.9-0.1,18.9-2.8,26.8-7.3c7.6-4.3,12.1-9.6,12-14.2c0-6-7.7-11.6-13.1-15.2
			c-6.4,3.9-13.2,6.5-20.3,7.7c-7.9,1.3-14.5,0.6-19.8,0C195.8,274,193.6,273.8,191.8,273.8z"/>
	</g>
</g>
<g>
	<path class="st0" d="M251.2,406.7c-41.9,0-81.3-16.3-110.9-45.9c-29.6-29.6-45.9-69-45.9-110.9c0-41.9,16.3-81.3,45.9-110.9
		c29.6-29.6,69-45.9,110.9-45.9c41.9,0,81.3,16.3,110.9,45.9c29.6,29.6,45.9,69,45.9,110.9c0,41.9-16.3,81.3-45.9,110.9
		C332.5,390.4,293.1,406.7,251.2,406.7z M251.2,99.3c-83,0-150.6,67.6-150.6,150.6s67.6,150.6,150.6,150.6s150.6-67.6,150.6-150.6
		S334.2,99.3,251.2,99.3z"/>
</g>
</svg>
