<?xml version="1.0" encoding="UTF-8"?><svg id="Capa_1" xmlns="http://www.w3.org/2000/svg" viewBox="0 0 458.29 313.62"><defs><style>.cls-1{fill:#010101;}</style></defs><path class="cls-1" d="m3.1,186.22c-.94,0-1.86-.42-2.47-1.23-1.04-1.36-.77-3.31.6-4.34,3.33-2.53,6.94-4.65,10.71-6.29,16.44-7.17,32.61-3.77,40.38-2.13l1.01.21c20.93,4.34,45.99,5.24,65.4,2.34,25.31-3.78,45.99-18.67,61.47-44.27.36-.6.66-1.09.88-1.43,1.25-1.95,4.18-6.51,10.09-8.9,1.88-.76,8.56-2.99,15.58.24,2.28,1.05,7.83,4.18,9.96,10.54,1.28,3.82.79,7.16.52,8.96-.46,3.09-1.53,6.01-3.2,8.7-.9,1.45-2.81,1.9-4.27,1-1.45-.9-1.9-2.82-1-4.27,1.22-1.96,2.01-4.09,2.34-6.34.22-1.46.54-3.67-.27-6.08-1.36-4.07-5.11-6.16-6.67-6.87-4.77-2.19-9.37-.65-10.67-.13-4.08,1.65-6.1,4.81-7.19,6.5-.2.31-.47.75-.79,1.3-2.61,4.32-8.74,14.44-19.4,24.4-13.41,12.52-29.04,20.19-46.47,22.79-20.08,3-45.98,2.08-67.57-2.41l-1.02-.21c-7.69-1.62-22.01-4.63-36.63,1.75-3.32,1.45-6.49,3.31-9.44,5.55-.56.43-1.22.63-1.87.63Z"/><path class="cls-1" d="m272.93,200.71c-7.55,0-12.94-3.24-16.55-6.73-8.26-7.98-12.47-22.01-14.55-36.04-6.2,5.43-13.86,10.46-23.3,14.56-1.57.68-3.4-.04-4.08-1.61-.68-1.57.04-3.4,1.61-4.08,10.48-4.55,18.58-10.32,24.84-16.49-.8-8.1-.99-15.82-.94-21.94.18-24.36,4.16-51.37,9.28-62.84,1.3-2.91,3.45-6.74,7.12-6.48,2.37.17,3.83,2.11,5.29,4.96,8.85,17.32,9.84,40.69,2.56,60.99-2.97,8.3-8.09,18.28-16.86,27.6,1.53,13.09,4.5,23.74,8.77,30.94,6.84,11.54,16.75,13.94,30.3,7.32,5.16-2.52,8.21-4.31,13.73-7.56,2.9-1.7,6.51-3.83,11.41-6.63,4.9-2.8,12.28-7.02,19.52-10.06v.02c.28-.14.54-.24.75-.31.61-.24,1.29-.48,2.02-.74,1.59-.55,4.18-1.4,7.52-2.29,5.87-1.57,15.23-3.58,26.54-4.26,21.94-1.32,54.12,4.24,88.27,15.26,1.63.53,2.52,2.27,2,3.9-.53,1.63-2.27,2.52-3.9,2-32.95-10.63-65.09-16.23-85.99-14.97-20.41,1.23-34.44,6.97-34.78,7.11h0c-6.89,2.9-13.79,6.84-18.83,9.72-4.89,2.79-8.48,4.9-11.36,6.6-5.47,3.22-8.77,5.16-14.15,7.79-6.25,3.05-11.62,4.24-16.2,4.24Zm-17.15-134.47c-2.81,4.73-7.53,22.28-9.14,48.18-.66,10.62-.67,20.59-.08,29.64,5.85-7.29,9.51-14.74,11.8-21.12,6.72-18.75,5.86-40.23-2.24-56.07-.12-.23-.23-.44-.33-.63Z"/><path class="cls-1" d="m191.68,216.3c-11.22,0-32.99-3.81-37-18.37-1.66-6.01-.33-14.74,5.43-19.78,5.2-4.55,11.23-3.89,18.21-3.12,5.18.57,11.06,1.22,18.14.02,5.23-.88,10.33-2.64,15.24-5.25-4.98-2.59-9.44-3.82-13.49-4.93-6.31-1.74-11.76-3.24-15.9-9.02-4.04-5.64-5.26-13.19-3.63-22.46.3-1.69,1.9-2.81,3.59-2.52,1.69.3,2.81,1.9,2.52,3.59-1.33,7.56-.47,13.54,2.57,17.77,2.86,3.99,6.7,5.05,12.5,6.65,4.96,1.37,11.01,3.03,17.91,7.22,1.36-.69,3.05-.28,3.94,1.01.41.59.58,1.27.54,1.93,6.33,4.34,14.7,10.92,14.75,19.59.04,6.95-5.48,14.09-15.16,19.59-8.79,4.99-19.95,8-29.87,8.07-.1,0-.2,0-.3,0Zm-20.71-35.61c-2.87,0-4.95.53-6.78,2.13-3.79,3.32-4.65,9.42-3.54,13.46,2.83,10.26,20.24,13.88,31.29,13.82,8.9-.06,18.94-2.77,26.84-7.26,7.56-4.29,12.05-9.58,12.02-14.16-.04-6.01-7.68-11.57-13.06-15.19-6.44,3.92-13.24,6.49-20.26,7.68-7.93,1.34-14.54.61-19.85.03-2.65-.29-4.82-.51-6.67-.51Z"/><path class="cls-1" d="m230.42,313.62c-41.89,0-81.26-16.31-110.88-45.93-29.62-29.62-45.93-69-45.93-110.88s16.31-81.26,45.93-110.88C149.15,16.31,188.53,0,230.42,0s81.26,16.31,110.88,45.93c29.62,29.62,45.93,69,45.93,110.88s-16.31,81.26-45.93,110.88c-29.62,29.62-69,45.93-110.88,45.93Zm0-307.42c-83.05,0-150.61,67.56-150.61,150.61s67.56,150.61,150.61,150.61,150.61-67.56,150.61-150.61S313.46,6.2,230.42,6.2Z"/></svg>